# xmcd CD database file
#
# Track frame offsets:
#	150
#	18125
#	38115
#	56539
#	68384
#	87224
#	105543
#	122917
#	140887
#	153652
#	167279
#
# Disc length: 2486 seconds
#
# Revision: 0
# Processed by: cddbd v1.5.2PL0 Copyright (c) Steve Scherf et al.
# Submitted via: CDex 1.70beta1
#
DISCID=8509b40b
DTITLE=西村由紀江 - Piano [初回盤]
DYEAR=2010
DGENRE=New Age
TTITLE0=ピアノ
TTITLE1=風の旅
TTITLE2=忘れないために
TTITLE3=道の途中で
TTITLE4=鬼政
TTITLE5=前へ
TTITLE6=回想
TTITLE7=椿
TTITLE8=あっ、見つけた
TTITLE9=世界をつなぐもの
TTITLE10=自由への階段
EXTD=YEAR: 2010
EXTT0=
EXTT1=
EXTT2=
EXTT3=
EXTT4=
EXTT5=
EXTT6=
EXTT7=
EXTT8=
EXTT9=
EXTT10=
PLAYORDER=
